<svg xmlns="http://www.w3.org/2000/svg" xmlns:xlink="http://www.w3.org/1999/xlink" version="1.1" x="0px" y="0px" viewBox="0 0 90 112.5" enable-background="new 0 0 90 90" xml:space="preserve"><path fill-rule="evenodd" clip-rule="evenodd" fill="#000000" d="M71.744,41.427c-3.859,1.489-7.34,5.383-8.332,9.4  c-1.173-0.927-2.386-2.069-2.249-3.733c1.741-4.401,4.404-7.076,9.015-8.392l1.836,2.621L71.744,41.427z M71.317,41.113  l-1.323-1.888c-4.189,1.239-6.741,3.832-8.388,7.972c-0.062,0.933,0.422,1.881,1.544,2.842  C64.166,46.528,67.524,42.69,71.317,41.113z M74.511,45.807c0.05-0.572,0.774-1.035,1.618-1.035h3.034  c0.844,0,1.488,0.463,1.44,1.035c-0.051,0.572-0.774,1.036-1.619,1.036h-3.033C75.107,46.843,74.462,46.379,74.511,45.807  L74.511,45.807z M59.316,45.999c1.822-5.504,7.142-9.588,13.062-9.588c5.023,0,9.105,2.94,10.762,7.192l2.774,6.483  c0.15,0.435-0.095,0.676-0.739,0.725h-1.567l-0.1,0.408c-0.022,0.804,0.098,2.603,1.482,3.628c0.417,0.331,0.13,1.051-0.683,0.729  c-0.667-0.181-0.858,0.889-0.059,0.688c0.726-0.301,1.195,0.538,0.084,0.859c-1.621,0.126-2.284,1.619-1.798,2.204  c0.73,1.434,0.017,2.193-2.141,2.277c0,0-12.678,5.935-19.582-4.679c-1.764-1.986-8.601-3.716-16.414-4.072v-1.387  C49.04,51.565,56.78,49.744,59.316,45.999z M31.964,35.461c0-0.498,0.404-0.902,0.901-0.902h5.022c0.498,0,0.901,0.404,0.901,0.902  v0.547c0,0.498-0.404,0.901-0.901,0.901h-5.022c-0.497,0-0.901-0.403-0.901-0.901V35.461z M2.359,40.609  c0-11.698,9.482-21.181,21.181-21.181c8.446,0,15.735,4.942,19.137,12.093l6.888,10.898c0.316,0.732-0.062,1.138-1.138,1.218h-3.921  c-0.033,0.23-0.07,0.46-0.11,0.687c0.07,1.191,0.438,3.679,2.215,5.434c4.153-0.39,9.203-1.597,11.328-4.46  c2.085-5.984,7.902-10.416,14.438-10.416c5.651,0,10.301,3.324,12.187,8.166l2.774,6.485c0.693,1.999-1.229,2.738-2.107,2.804  h-0.086c0.122,0.501,0.359,0.989,0.775,1.299c1.154,0.915,1.12,1.837,0.593,2.5c0.693,1.439-0.811,2.185-1.906,2.501  c-0.217,0.017-0.449,0.032-0.62,0.184c1.333,2.856-0.99,4.111-3.229,4.295c-7.439,3.141-16.239,2.196-21.152-5.243  c-2.07-2.091-9.597-3.022-14.053-3.383c-1.848,0.69-2.384,2.635-1.618,3.472c1.437,2.411,0.346,3.688-3.271,3.83h-6.738v9.354  c0,0.497-0.403,0.899-0.901,0.899H12.707c-0.497,0-0.9-0.402-0.9-0.899V58.245C6.111,54.449,2.359,47.967,2.359,40.609z"/><text x="0" y="105" fill="#000000" font-size="5px" font-weight="bold" font-family="'Helvetica Neue', Helvetica, Arial-Unicode, Arial, Sans-serif">Created by Michael A. Salter</text><text x="0" y="110" fill="#000000" font-size="5px" font-weight="bold" font-family="'Helvetica Neue', Helvetica, Arial-Unicode, Arial, Sans-serif">from the Noun Project</text></svg>